<?xml version="1.0" encoding="UTF-8" standalone="no"?>
<svg
   viewBox="0 0 64 64"
   version="1.1"
   id="svg12"
   sodipodi:docname="folder-gimp.svg"
   inkscape:version="1.3.2 (091e20ef0f, 2023-11-25)"
   xmlns:inkscape="http://www.inkscape.org/namespaces/inkscape"
   xmlns:sodipodi="http://sodipodi.sourceforge.net/DTD/sodipodi-0.dtd"
   xmlns:xlink="http://www.w3.org/1999/xlink"
   xmlns="http://www.w3.org/2000/svg"
   xmlns:svg="http://www.w3.org/2000/svg"
   xmlns:rdf="http://www.w3.org/1999/02/22-rdf-syntax-ns#"
   xmlns:cc="http://creativecommons.org/ns#"
   xmlns:dc="http://purl.org/dc/elements/1.1/">
  <metadata
     id="metadata16">
    <rdf:RDF>
      <cc:Work
         rdf:about="">
        <dc:format>image/svg+xml</dc:format>
        <dc:type
           rdf:resource="http://purl.org/dc/dcmitype/StillImage" />
      </cc:Work>
    </rdf:RDF>
  </metadata>
  <sodipodi:namedview
     pagecolor="#ffffff"
     bordercolor="#666666"
     borderopacity="1"
     objecttolerance="10"
     gridtolerance="10"
     guidetolerance="10"
     inkscape:pageopacity="0"
     inkscape:pageshadow="2"
     inkscape:window-width="1920"
     inkscape:window-height="994"
     id="namedview14"
     showgrid="true"
     inkscape:zoom="9.002686"
     inkscape:cx="33.989856"
     inkscape:cy="39.432676"
     inkscape:window-x="0"
     inkscape:window-y="0"
     inkscape:window-maximized="1"
     inkscape:current-layer="svg12"
     inkscape:showpageshadow="2"
     inkscape:pagecheckerboard="0"
     inkscape:deskcolor="#d1d1d1">
    <inkscape:grid
       type="xygrid"
       id="grid953"
       originx="0"
       originy="0"
       spacingy="1"
       spacingx="1"
       units="px"
       visible="true" />
  </sodipodi:namedview>
  <defs
     id="defs3051">
    <linearGradient
       inkscape:collect="always"
       id="linearGradient1003">
      <stop
         style="stop-color:#00171e;stop-opacity:1;"
         offset="0"
         id="stop999" />
      <stop
         style="stop-color:#007599;stop-opacity:0;"
         offset="1"
         id="stop1001" />
    </linearGradient>
    <style
       type="text/css"
       id="current-color-scheme">.ColorScheme-Text { color:#31363b; }
.ColorScheme-Background { color:#eff0f1; }
.ColorScheme-Highlight { color:#3daee9; }
.ColorScheme-ViewText { color:#31363b; }
.ColorScheme-ViewBackground { color:#fcfcfc; }
.ColorScheme-ViewHover { color:#93cee9; }
.ColorScheme-ViewFocus { color:#3daee9; }
.ColorScheme-ButtonText { color:#31363b; }
.ColorScheme-ButtonBackground { color:#eff0f1; }
.ColorScheme-ButtonHover { color:#93cee9; }
.ColorScheme-ButtonFocus { color:#3daee9; }
</style>
    <linearGradient
       inkscape:collect="always"
       xlink:href="#linearGradient1003"
       id="linearGradient4160"
       x1="6.0765505"
       y1="1039.381"
       x2="14.362771"
       y2="1048.6106"
       gradientUnits="userSpaceOnUse"
       gradientTransform="matrix(3.6204685,0,0,3.4670854,3.00004,-3590.6226)" />
  </defs>
  <path
     inkscape:connector-curvature="0"
     style="fill:currentColor;fill-opacity:1;stroke-width:3.54293"
     id="rect4180-6-3"
     d="M 4,32 H 59.999586 L 60,13.4 c 0,-2 -2.1,-3.9 -4.1,-3.9 L 31.999784,9.46667 28.37481,6 H 7.99997 C 5.999985,6 4,8 4,10 Z"
     sodipodi:nodetypes="ccccccccc"
     class="ColorScheme-Highlight " />
  <path
     inkscape:connector-curvature="0"
     style="fill:#002938;fill-opacity:1;stroke-width:3.54294"
     d="m 3,23 c 0,-11.262012 0,2.953607 0,3.93041 V 54 c 0,2 2,4 4,4 h 50 c 2,0 4,-2 4,-4 V 20 c 0,-1 -1,-2 -2,-2 H 25 l -5,4 H 4 c -1,0 -1,1 -1,1 z"
     id="rect4113-2-2"
     sodipodi:nodetypes="cccscccccccc" />
  <path
     inkscape:connector-curvature="0"
     style="opacity:0.3;fill:#0f608a;fill-opacity:1;fill-rule:evenodd;stroke-width:1.77147"
     id="path4224-9-7"
     d="m 4,22 v 0 h 2 14 l 5,-4 v 0 l -5.6,3 H 5.018103 C 4,21 4,22 4,22 Z"
     sodipodi:nodetypes="ccccccccc" />
  <path
     style="color:#000000;clip-rule:nonzero;display:inline;overflow:visible;visibility:visible;opacity:0.2;isolation:auto;mix-blend-mode:normal;color-interpolation:sRGB;color-interpolation-filters:linearRGB;solid-color:#000000;solid-opacity:1;fill:#000000;fill-opacity:1;fill-rule:nonzero;stroke:none;stroke-width:3.54294;stroke-linecap:butt;stroke-linejoin:miter;stroke-miterlimit:4;stroke-dasharray:none;stroke-dashoffset:0;stroke-opacity:1;marker:none;color-rendering:auto;image-rendering:auto;shape-rendering:auto;text-rendering:auto;enable-background:accumulate"
     d="M 3,51.11291 V 54 c 0,2 2,4 4,4 h 50 c 2,0 4,-2 4,-4 l -0.0088,-2.82577 c -0.024,1.78743 -1.88271,3.39324 -3.69826,3.35853 H 6.64205 c -1.80475,0 -3.64147,-1.66854 -3.64147,-3.41985 z"
     id="path9304-0"
     inkscape:connector-curvature="0"
     sodipodi:nodetypes="cssccccscc" />
  <path
     style="opacity:1;fill:url(#linearGradient4160);fill-opacity:1;fill-rule:evenodd;stroke:none;stroke-width:3.54294px;stroke-linecap:butt;stroke-linejoin:miter;stroke-opacity:1"
     d="M 3,27 31.96374,54.53972 H 60.92748 L 61,27 Z"
     id="path4152-9"
     inkscape:connector-curvature="0"
     sodipodi:nodetypes="ccccc" />
  <path
     d="m 42.150025,28.661365 c -0.100923,-0.889513 -0.180937,-1.592077 -0.679252,-1.657349 -0.452163,-0.05735 -0.732551,0.501386 -1.089272,1.55654 -0.766358,2.270203 -2.973913,4.09765 -5.647991,4.697615 -0.470059,-0.30642 -1.014891,-0.484948 -1.597106,-0.484948 -0.679256,0 -1.308002,0.240702 -1.825003,0.647484 -2.421136,-0.236699 -4.190851,-3.08733 -4.208744,-3.117086 l -0.726976,-1.194168 v 5.541836 c -0.175783,0.314866 -0.29907,0.66703 -0.357132,1.044065 -1.018082,-0.76473 -2.205975,-0.936586 -3.052664,-0.320635 -0.483586,0.352161 -0.800547,0.905065 -0.917077,1.599623 -0.169397,1.010305 0.106677,2.169841 0.757605,3.181475 0.771519,1.199504 1.909712,1.899375 2.934547,1.930929 v 0 c 0.686015,0.636837 1.835724,1.542278 2.89597,2.076972 1.990035,1.004508 3.84327,1.503248 5.509593,1.502814 2.418741,0 4.302298,-0.953949 5.776556,-3.033176 2.803944,-3.546058 2.507226,-11.735683 2.226946,-13.972033 z m -6.627482,7.664607 c 0,1.469491 -1.070193,2.664552 -2.386139,2.664552 -1.315962,0 -2.386147,-1.195061 -2.386147,-2.664552 0,-1.469511 1.070185,-2.664564 2.386147,-2.664564 1.315946,0 2.386139,1.195053 2.386139,2.664564 z m -8.361426,0.611061 c -0.116139,-0.180746 -0.242589,-0.347272 -0.373833,-0.505375 -0.0079,-0.08134 -0.01401,-0.162518 -0.01401,-0.244246 0,-1.147984 0.867358,-2.081914 1.933566,-2.081914 0.598122,0 1.15331,0.299322 1.516793,0.79582 -0.171792,0.436539 -0.268839,0.917934 -0.268839,1.424654 0,0.41877 0.06846,0.818896 0.188109,1.192391 -0.387776,0.654139 -0.90557,1.028069 -1.445619,1.028069 -0.336052,0 -0.667334,-0.150511 -0.966,-0.425003 -0.134881,-0.405448 -0.326123,-0.805141 -0.570299,-1.184396 z m -3.70885,2.700545 c -0.517007,-0.803815 -0.749253,-1.738191 -0.621594,-2.499805 0.05246,-0.313981 0.194069,-0.745636 0.569486,-1.018755 0.219132,-0.159453 0.479218,-0.23448 0.758794,-0.23448 0.784641,0 1.725181,0.590201 2.356307,1.570754 0.516611,0.803357 0.749256,1.737295 0.621589,2.498916 -0.05246,0.314405 -0.194065,0.746067 -0.569478,1.019621 -0.832767,0.606638 -2.259278,-0.0056 -3.115104,-1.336251 z m 15.42605,2.348349 c -2.694438,2.769701 -5.379589,2.906611 -9.914072,0.744326 -0.647144,-0.409586 -1.092448,-0.658238 -1.681656,-1.324134 l 0.140394,-0.156313 c 0.330387,-0.492453 0.31727,-0.524395 0.495752,-1.132175 0.04521,-0.270422 0.05614,-0.551552 0.03892,-0.83755 0.239798,0.09734 0.486766,0.154511 0.739699,0.154511 0.69277,0 1.342602,-0.37658 1.853236,-1.046724 0.577441,0.900624 1.519965,1.490813 2.585777,1.490813 1.754198,0 3.181506,-1.593845 3.181506,-3.55273 0,-0.905952 -0.388704,-1.734418 -0.388704,-1.734418 3.100372,-1.338206 3.791957,-2.258226 5.020932,-3.961424 v 0 0 c 0,0 0.459549,7.069992 -2.046542,11.112572 z"
     id="path2-3"
     sodipodi:nodetypes="ccccscccccccccccccccsssssccsscscscccsccccccsccccccccccscsscc"
     style="color:#e4e4e4;fill:currentColor;fill-opacity:1;stroke-width:1.48132"
     class="ColorScheme-Text" />
  <path
     d="m 23.129951,35.116178 a 1.0838246,1.4203295 0 1 0 0,2.840654 1.0838246,1.4203295 0 1 0 0,-2.840654 z"
     id="path4"
     style="color:#e4e4e4;fill:currentColor;fill-opacity:1;stroke-width:0.382911"
     class="ColorScheme-Text" />
  <path
     d="m 32.704358,34.710372 c -0.04161,0 -0.07989,0.0085 -0.120312,0.01345 0.341423,0.06483 0.602249,0.396064 0.602249,0.798223 0,0.448012 -0.323696,0.811612 -0.722551,0.811612 -0.398847,0 -0.722547,-0.3636 -0.722547,-0.811612 0,-0.219542 0.07848,-0.418392 0.204851,-0.564476 -0.411145,0.286494 -0.686788,0.793353 -0.686788,1.376088 0,0.896432 0.647031,1.623235 1.445098,1.623235 0.798069,0 1.445095,-0.726803 1.445095,-1.623235 0,-0.896427 -0.647026,-1.623227 -1.445095,-1.623227 z"
     id="path6"
     style="color:#e4e4e4;fill:currentColor;fill-opacity:1;stroke-width:0.382911"
     class="ColorScheme-Text" />
  <path
     d="m 28.549692,34.710372 c -0.03583,0 -0.06971,0.0078 -0.105034,0.01208 0.298784,0.05675 0.527102,0.346552 0.527102,0.69839 0,0.392011 -0.283241,0.710162 -0.632232,0.710162 -0.348994,0 -0.632232,-0.318151 -0.632232,-0.710162 0,-0.191948 0.0686,-0.366041 0.179197,-0.493863 -0.359836,0.250796 -0.601165,0.693936 -0.601165,1.20403 0,0.784426 0.566115,1.420336 1.264456,1.420336 0.698347,0 1.264467,-0.63591 1.264467,-1.420336 0,-0.784424 -0.56612,-1.42033 -1.264467,-1.42033 z"
     id="path8"
     style="color:#e4e4e4;fill:currentColor;fill-opacity:1;stroke-width:0.382911"
     class="ColorScheme-Text" />
  <path
     d="m 42.422758,42.99698 c -0.540737,-0.619272 -1.298751,-0.751569 -1.886945,-0.329533 -0.0068,0.0054 -0.01106,0.0091 -0.01644,0.0141 -0.649419,-0.551679 -1.646175,-1.188784 -2.817286,-1.763825 -0.826568,-0.405759 -0.04523,-0.2582 -0.726247,-0.467603 l -2.104824,1.216594 c 0,0 0.431199,0.395824 2.016823,1.174566 1.112766,0.546222 2.1612,0.926862 2.960683,1.106232 -0.03267,0.319375 -9.67e-4,0.66594 0.101448,1.018179 0.352989,1.213373 2.381983,1.839119 2.612262,1.906484 L 42.999271,47 l 7.16e-4,-0.520234 c 9.62e-4,-0.660248 -0.03723,-2.863387 -0.577307,-3.48265 z"
     id="path10"
     style="color:#e4e4e4;fill:currentColor;fill-opacity:1;stroke-width:1.33141"
     sodipodi:nodetypes="cccccccccccccc"
     class="ColorScheme-Text" />
  <path
     d="m 31.168208,41.059985 c 0,0 5.511259,0.398897 5.511259,-1.010457 0,-0.700443 -0.402114,-1.425608 -0.402114,-1.425608 0,0 1.613441,0.960944 1.368881,2.240466 -0.03767,0.196003 -0.11374,0.400115 -0.239165,0.610737 -1.206672,2.018896 -6.238861,-0.415138 -6.238861,-0.415138 z"
     id="path12"
     style="color:#e4e4e4;fill:currentColor;fill-opacity:1;stroke-width:0.382911"
     class="ColorScheme-Text" />
</svg>
